<?xml version="1.0" standalone="no"?>
<!DOCTYPE svg PUBLIC "-//W3C//DTD SVG 1.1//EN" "http://www.w3.org/Graphics/SVG/1.1/DTD/svg11.dtd" >
<svg xmlns="http://www.w3.org/2000/svg">
<metadata>
Created by FontForge 20120731 at Thu Jul 13 17:44:41 2017
 By admin
</metadata>
<defs>
<font id="iconfont" horiz-adv-x="1024" >
  <font-face 
    font-family="iconfont"
    font-weight="500"
    font-stretch="normal"
    units-per-em="1024"
    panose-1="2 0 6 3 0 0 0 0 0 0"
    ascent="896"
    descent="-128"
    x-height="792"
    bbox="0 -128 1280 899"
    underline-thickness="0"
    underline-position="0"
    unicode-range="U+0078-E9C9"
  />
<missing-glyph 
 />
    <glyph glyph-name=".notdef" 
 />
    <glyph glyph-name=".notdef" 
 />
    <glyph glyph-name=".null" horiz-adv-x="0" 
 />
    <glyph glyph-name="nonmarkingreturn" horiz-adv-x="341" 
 />
    <glyph glyph-name="x" unicode="x" horiz-adv-x="1001" 
d="M281 543q-27 -1 -53 -1h-83q-18 0 -36.5 -6t-32.5 -18.5t-23 -32t-9 -45.5v-76h912v41q0 16 -0.5 30t-0.5 18q0 13 -5 29t-17 29.5t-31.5 22.5t-49.5 9h-133v-97h-438v97zM955 310v-52q0 -23 0.5 -52t0.5 -58t-10.5 -47.5t-26 -30t-33 -16t-31.5 -4.5q-14 -1 -29.5 -0.5
t-29.5 0.5h-32l-45 128h-439l-44 -128h-29h-34q-20 0 -45 1q-25 0 -41 9.5t-25.5 23t-13.5 29.5t-4 30v167h911zM163 247q-12 0 -21 -8.5t-9 -21.5t9 -21.5t21 -8.5q13 0 22 8.5t9 21.5t-9 21.5t-22 8.5zM316 123q-8 -26 -14 -48q-5 -19 -10.5 -37t-7.5 -25t-3 -15t1 -14.5
t9.5 -10.5t21.5 -4h37h67h81h80h64h36q23 0 34 12t2 38q-5 13 -9.5 30.5t-9.5 34.5q-5 19 -11 39h-368zM336 498v228q0 11 2.5 23t10 21.5t20.5 15.5t34 6h188q31 0 51.5 -14.5t20.5 -52.5v-227h-327z" />
    <glyph glyph-name="ordinarydownload" unicode="&#xe6c8;" 
d="M515 72l-244 339h133v276h221v-276h134l-244 -339v0zM903 161h-85v-162h-611v162h-86v-248h782v248v0z" />
    <glyph glyph-name="msnui-rmb" unicode="&#xe636;" 
d="M413 129h-199q-28 2 -43 23t-18 47q3 26 18 42.5t43 18.5h199v65l-199 1q-28 2 -43 19.5t-18 44.5q3 26 18 42.5t43 18.5h149l-139 244q-10 12 -19.5 31t-8.5 42q6 29 21.5 47t57.5 23q25 -2 44.5 -17t31.5 -32l157 -287l173 289q12 17 31.5 30.5t44.5 16.5q15 -1 28 -4
t23 -10t16.5 -20.5t9.5 -35.5q0 -30 -20 -57l-160 -260h152q26 -2 41.5 -18.5t17.5 -42.5q-2 -27 -18 -45.5t-43 -20.5l-197 -1v-63h199q26 -2 41.5 -20.5t17.5 -44.5q-2 -27 -17.5 -45t-41.5 -20l-199 1v-109q-4 -88 -96 -88q-45 0 -70.5 21.5t-27.5 66.5v107v0z" />
    <glyph glyph-name="cuowu" unicode="&#xe632;" 
d="M512 832q-185 0 -316.5 -131.5t-131.5 -316.5t131.5 -316.5t316.5 -131.5t316.5 131.5t131.5 316.5t-131.5 316.5t-316.5 131.5zM512 0q-159 0 -271.5 112.5t-112.5 271.5t112.5 271.5t271.5 112.5t271.5 -112.5t112.5 -271.5t-112.5 -271.5t-271.5 -112.5zM670 588
l-158 -159l-158 159l-46 -46l159 -158l-159 -158l46 -46l158 159l158 -159l46 46l-159 158l159 158z" />
    <glyph glyph-name="user-info" unicode="&#xe63a;" 
d="M860 609h-698q-41 0 -70 -29t-29 -70v-444q0 -41 29 -70t70 -29h698q41 0 70 29t29 70v444q0 41 -29 70t-70 29v0zM331 461q36 0 65.5 -25t29.5 -57q0 -33 -29 -59.5t-66 -26.5q-35 0 -63.5 29t-28.5 61t28 55t64 23v0zM502 115h-340v17q0 66 43 106t127.5 40t127 -38
t42.5 -101v-6v-11.5v-6.5v0zM860 177q0 -6 -4.5 -9.5t-11.5 -3.5h-267q-7 0 -11.5 3.5t-4.5 9.5v24q0 5 4.5 9t11.5 4h267q7 0 11.5 -4t4.5 -9v-24zM860 276q0 -5 -4.5 -8.5t-11.5 -3.5h-267q-7 0 -11.5 3.5t-4.5 8.5v25q0 5 4.5 8.5t11.5 3.5h267q7 0 11.5 -3.5t4.5 -8.5
v-25zM860 374q0 -5 -4.5 -8.5t-11.5 -3.5h-267q-7 0 -11.5 3.5t-4.5 8.5v25q0 5 4.5 8.5t11.5 3.5h267q7 0 11.5 -3.5t4.5 -8.5v-25zM860 374z" />
    <glyph glyph-name="jia" unicode="&#xe616;" 
d="M858 357h-291v291q0 15 -11 25.5t-26 10.5h-36q-15 0 -25.5 -10.5t-10.5 -25.5v-291h-292q-15 0 -25.5 -10.5t-10.5 -25.5v-37q0 -15 10.5 -25.5t25.5 -10.5h292v-291q0 -15 10.5 -26t25.5 -11h36q15 0 26 11t11 26v291h291q15 0 25.5 10.5t10.5 25.5v37q0 15 -10.5 25.5
t-25.5 10.5z" />
    <glyph glyph-name="shezhi" unicode="&#xe618;" 
d="M577 -60h-102l-30 134q-36 10 -91 45l-110 -70l-72 72l69 121q-21 38 -31 75l-147 36v102l152 30q10 37 30 72l-73 125l72 72l118 -80q36 21 80 32v-3l33 131h101l33 -130q46 -12 71 -26l123 74l72 -71l-77 -113q23 -37 36 -86l123 -27v-101l-121 -34q-11 -53 -32 -88
l72 -111l-72 -72l-116 66q-57 -34 -82 -41zM500 -29h52l29 129l9 5q40 9 90 39l7 6l112 -63l37 38l-68 106l5 9q23 35 35 95l2 9l116 33v53l-118 26l-2 9q-14 57 -39 95l-6 8l74 110l-37 37l-113 -67l-6 -1l-7 3q-35 20 -75 30l-4 1l-12 7l-29 114h-53l-28 -113l-11 -12h-5
q-50 -13 -85 -35l-7 -4l-10 6l-105 70l-37 -37l66 -114l2 -9l-3 -6q-23 -37 -33 -79l-3 -8l-19 -7l-126 -24v-52l129 -33l13 -5l2 -8q8 -40 31 -80l3 -4l-2 -15l-61 -106l38 -38l107 70l8 -6q54 -36 99 -46l9 -7zM526 242q-64 0 -109 45.5t-45 109t45 108.5t109 45t109 -45
t45 -108.5t-45 -109t-109 -45.5zM526 520q-51 0 -87 -36.5t-36 -87.5t36 -87t87 -36t87 36t36 87t-36 87.5t-87 36.5z" />
    <glyph glyph-name="dingdan2" unicode="&#xe619;" 
d="M834 808q24 0 41 -17t17 -41v-732q0 -24 -17 -41t-41 -17h-644q-24 0 -41 17t-17 41v732q0 24 17 41t41 17h644zM834 867h-644q-48 0 -82.5 -34.5t-34.5 -82.5v-732q0 -48 34.5 -82.5t82.5 -34.5h644q48 0 82.5 34.5t34.5 82.5v732q0 48 -34.5 82.5t-82.5 34.5v0z
M761 618h-468q-13 0 -21.5 -8.5t-8.5 -20.5t8.5 -20.5t21.5 -8.5h468q12 0 20.5 8.5t8.5 20.5t-8.5 20.5t-20.5 8.5v0zM761 413h-468q-13 0 -21.5 -8.5t-8.5 -20.5t8.5 -20.5t21.5 -8.5h468q12 0 20.5 8.5t8.5 20.5t-8.5 20.5t-20.5 8.5v0zM761 208h-468q-13 0 -21.5 -8.5
t-8.5 -20.5t8.5 -20.5t21.5 -8.5h468q12 0 20.5 8.5t8.5 20.5t-8.5 20.5t-20.5 8.5v0z" />
    <glyph glyph-name="crm4" unicode="&#xe64e;" 
d="M956 446q-3 15 -15.5 28t-26.5 16l-15 3q-55 17 -83 66q-29 51 -16 107v0l5 13q4 15 -1 32t-16 26q-14 12 -53 34q-17 10 -30.5 17t-18.5 9l-6 2q-14 6 -31 1.5t-27 -15.5l-11 -11q-41 -39 -99 -39t-100 40l-9 10q-11 11 -28 15t-31 -1q-17 -6 -55 -28q-18 -10 -31 -18.5
t-17 -11.5l-5 -4q-11 -9 -16 -26t-1 -32l5 -13q13 -57 -16 -107t-84 -66l-14 -3q-15 -4 -27 -16.5t-15 -27.5q-3 -17 -3 -62q0 -20 1 -35.5t1 -20.5l1 -6q3 -15 15 -27.5t27 -15.5l14 -4q55 -16 84 -66q29 -51 15 -107v0l-4 -13q-4 -14 1 -31t16 -27q14 -12 52.5 -34
t55.5 -28v0q14 -5 31 -1t28 15l9 10q42 40 100 40t100 -40v0l9 -10q11 -11 28 -15t31 1q17 6 56 28q52 30 52 34q11 9 16 26t1 32l-5 14q-13 56 16 106t84 66v0l14 3q14 4 26.5 16.5t15.5 27.5q3 18 3 62q0 20 -1 35.5t-2 21.5v5v0v0zM512 206q-74 0 -126 52t-52 126t52 126
t126 52t126 -52t52 -126t-52 -126t-126 -52v0v0z" />
    <glyph glyph-name="news" unicode="&#xe708;" 
d="M683 424l338 280v-675zM7 740h1011l-505 -417l-506 417v0zM3 29v675l338 -280l-338 -395v0zM513 282l148 123l322 -377h-941l322 373z" />
    <glyph glyph-name="dingdan3" unicode="&#xe60b;" 
d="M691 845h-512q-21 0 -36 -15t-15 -36v-820q0 -21 15 -36t36 -15h666q21 0 36 15t15 36v666zM717 742l77 -76h-77v76zM845 0q0 -12 -7 -19t-19 -7h-614q-12 0 -19 7t-7 19v768q0 12 7 19t19 7h461v-180h179v-614zM717 128h-410q-11 0 -18 7t-7 18.5t7 18.5t18 7h410
q11 0 18 -7t7 -18.5t-7 -18.5t-18 -7zM717 282h-410q-11 0 -18 7t-7 18.5t7 18.5t18 7h410q11 0 18 -7t7 -18.5t-7 -18.5t-18 -7zM717 435h-410q-11 0 -18 7t-7 18.5t7 18.5t18 7h410q11 0 18 -7t7 -18.5t-7 -18.5t-18 -7z" />
    <glyph glyph-name="xinxi" unicode="&#xe646;" horiz-adv-x="1040" 
d="M925 793h-826q-41 0 -70 -28.5t-29 -69.5v-622q0 -41 29 -69.5t70 -28.5h826q41 0 70 28.5t29 69.5v622q0 41 -29 69.5t-70 28.5zM910 725l-388 -411l-406 411h794zM912 43h-800q-18 0 -30.5 12.5t-12.5 30.5v590l454 -460l432 457v-587q0 -18 -12.5 -30.5t-30.5 -12.5z
" />
    <glyph glyph-name="yueduliang" unicode="&#xe63e;" 
d="M507 512q-42 0 -72.5 -33t-30.5 -79.5t30.5 -79.5t72.5 -33t72 33t30 79q0 48 -28.5 80.5t-73.5 32.5v0zM512 748q-101 0 -198 -35.5t-164.5 -89t-108.5 -118t-41 -121.5t41 -121.5t108.5 -118t164.5 -89t198 -35.5t198 36t164.5 90.5t108.5 118t41 119.5t-41 119.5
t-108.5 118t-164.5 90.5t-198 36v0zM507 148q-89 0 -152 71t-63 170q0 100 63.5 173t151.5 73q89 0 152 -71.5t63 -174.5q4 -99 -59.5 -170t-155.5 -71v0z" />
    <glyph glyph-name="wenxintishi" unicode="&#xe74a;" 
d="M791 379q-17 -102 -96 -168.5t-183 -66.5q-117 0 -199.5 82.5t-82.5 199.5t82.5 199.5t199.5 82.5q74 0 139.5 -37t103.5 -101q7 -12 3.5 -24.5t-14.5 -19t-23.5 -3.5t-19.5 15q-30 49 -80.5 78t-108.5 29q-91 0 -155.5 -64t-64.5 -155t64.5 -155.5t155.5 -64.5
q81 0 142 52t75 132q2 12 12.5 20t23 5.5t20.5 -13t6 -23.5zM512 729q13 0 22 9t9 22v42q0 13 -9 22.5t-22 9.5t-22 -9.5t-9 -22.5v-42q0 -13 9 -22t22 -9zM721 687q13 0 22 9l42 42q9 9 9 22t-9 22.5t-22 9.5t-22 -9l-42 -42q-9 -9 -9 -22t9 -22.5t22 -9.5zM281 696
q9 -9 22 -9t22 9.5t9 22.5t-9 22l-42 42q-9 9 -22 9t-22 -9.5t-9 -22.5t9 -22zM679 111h-334q-13 0 -22.5 -9.5t-9.5 -22.5t9.5 -22t22.5 -9h334q13 0 22.5 9t9.5 22t-9.5 22.5t-22.5 9.5zM596 -3h-168q-13 0 -22 -9t-9 -22t9 -22.5t22 -9.5h168q13 0 22 9.5t9 22.5t-9 22
t-22 9z" />
    <glyph glyph-name="daochu" unicode="&#xe6e1;" horiz-adv-x="1025" 
d="M962 704v-640q0 -79 -57.5 -135.5t-137.5 -56.5h-390q-27 0 -46 18.5t-19 45.5t19 45.5t46 18.5h390q26 0 45.5 19t19.5 45v640q0 26 -19.5 45t-45.5 19h-390q-27 0 -46 18.5t-19 45.5t19 45.5t46 18.5h390q80 0 137.5 -56.5t57.5 -135.5zM75 407q-10 -10 -10 -23t10 -23
l214 -210q9 -10 16 -7t7 16v64q0 13 9.5 22.5t22.5 9.5h130q14 0 23.5 9.5t9.5 22.5v192q0 13 -9.5 22.5t-23.5 9.5h-130q-13 0 -22.5 9.5t-9.5 22.5v64q0 13 -7 16t-16 -7zM604.5 512q13.5 0 23 -9.5t9.5 -22.5t-9.5 -22.5t-23 -9.5t-23 9.5t-9.5 22.5t9.5 22.5t23 9.5z
M604.5 320q13.5 0 23 -9.5t9.5 -22.5t-9.5 -22.5t-23 -9.5t-23 9.5t-9.5 22.5t9.5 22.5t23 9.5zM572 288v192h65v-192h-65z" />
    <glyph glyph-name="mimaxiugai" unicode="&#xe63b;" 
d="M828 536h-85q0 101 -68 170t-167.5 69t-167.5 -69t-68 -170h-85q0 80 42.5 155t117.5 121.5t160.5 46.5t160 -46.5t117.5 -121.5t43 -155v0zM935 397q0 35 -25 59.5t-60 24.5h-677q-34 0 -59 -24.5t-25 -59.5v-401q0 -35 25 -60t59 -25h677q35 0 60 25t25 60v401v0z
M579 83q0 -26 -18.5 -44.5t-45.5 -18.5h-9q-26 0 -44.5 18.5t-18.5 44.5v172q0 26 18.5 44.5t44.5 18.5h9q27 0 45.5 -18.5t18.5 -44.5v-172v0zM579 83z" />
    <glyph glyph-name="dingdan" unicode="&#xe634;" 
d="M335 250h352q16 0 27.5 13t11.5 31.5t-11.5 31.5t-27.5 13h-352q-16 0 -28 -13t-12 -31.5t12 -31.5t28 -13zM478 729h66q16 0 27.5 13t11.5 31.5t-11.5 31.5t-27.5 13h-66q-16 0 -27.5 -13t-11.5 -31.5t11.5 -31.5t27.5 -13zM887 818h-82q-17 0 -28.5 -13t-11.5 -31.5
t11.5 -31.5t28.5 -13h43v-757h-674v757h43q17 0 28.5 13t11.5 31.5t-11.5 31.5t-28.5 13h-83q-16 0 -27.5 -15t-11.5 -34v-842q0 -18 11.5 -31t27.5 -13h753q17 0 28.5 13t11.5 31v842q0 19 -12 34t-28 15zM335 451h352q16 0 27.5 13t11.5 31.5t-11.5 31.5t-27.5 13h-352
q-16 0 -28 -13t-12 -31.5t12 -31.5t28 -13zM669.5 642q20.5 0 35 16.5t14.5 39.5v142q0 23 -14.5 39.5t-35 16.5t-35 -16.5t-14.5 -39.5v-142q0 -23 14.5 -39.5t35 -16.5zM303 698v142q0 23 14.5 39.5t35 16.5t35 -16.5t14.5 -39.5v-142q0 -23 -14.5 -39.5t-35 -16.5
t-35 16.5t-14.5 39.5v0z" />
    <glyph glyph-name="zan" unicode="&#xe6d8;" 
d="M871 473h-229q18 70 24 127t2.5 93t-14 63.5t-21.5 41t-25 22t-19.5 10t-8.5 1.5v0q-22 0 -34.5 -8.5t-15 -18.5t-3.5 -21t-2 -13q0 -46 -17.5 -94t-42.5 -82.5t-50 -63t-43 -42.5l-17 -15v-472q0 -31 29.5 -47t55.5 -16h344q10 0 19 9t16 22t12.5 26t8.5 22l3 9
q38 134 59.5 234t23.5 123t2 33q0 18 -5.5 30t-14 17t-17 8t-14.5 2h-6zM261 473h-138q-12 0 -19.5 -7t-7.5 -15l-1 -7l28 -476q0 -13 7.5 -21t14.5 -8l7 -1h119q11 0 17 5t7 10l1 5v479q0 16 -9 25t-18 10z" />
    <glyph glyph-name="iconfontjinru-copy" unicode="&#xe600;" 
d="M193 477h298v-119h-298v-120l-180 180l180 179v-120zM960 833v-777l-359 -179v179h-358v239h59v-179h299v537l239 120h-538v-239h-59v299h717z" />
    <glyph glyph-name="luntan" unicode="&#xe62f;" horiz-adv-x="1280" 
d="M1165 896h-1050q-48 0 -81.5 -33.5t-33.5 -81.5v-679q0 -48 33.5 -81.5t81.5 -33.5q14 0 23 -7.5t9 -17.5v-52q0 -23 16 -32.5t35 0.5q84 32 122 45q43 16 116 40t82 24h647q48 0 81.5 33.5t33.5 81.5v679q0 48 -33.5 81.5t-81.5 33.5zM358 602q26 12 51.5 12t51.5 -12
q14 -5 15 -20.5t-9 -24.5q-19 -19 -32 -7q-7 0 -15 3.5t-10 3.5q-4 0 -13.5 -3.5t-12.5 -3.5q-17 -8 -32 7q-14 10 -11.5 22.5t17.5 22.5zM922 262q-134 -51 -276 -51q-138 0 -281 51q-28 19 -19 45q4 10 16 14t22 -1q133 -51 256 -51q110 0 256 45q10 4 22 0t16.5 -13.5
t0.5 -21.5t-13 -17zM928 557q-15 -15 -32 -7q-6 7 -25.5 7t-25.5 -7q-17 -8 -32 7q-10 9 -9 24.5t15 20.5q26 12 51.5 12t51.5 -12q15 -10 17.5 -22.5t-11.5 -22.5z" />
    <glyph glyph-name="duihao1" unicode="&#xe617;" 
d="M924 559q-34 80 -96 142t-142 96q-83 35 -174 35t-174 -35q-81 -34 -143 -96t-96 -142q-35 -83 -35 -174t35 -174q34 -81 96 -143t143 -96q83 -35 174 -35t174 35q80 34 142 96t96 143q35 83 35 174t-35 174zM749 505l-272 -280q-8 -9 -20 -9q-11 0 -19 7l-164 151
q-8 8 -8.5 19.5t6.5 20.5q9 9 21 9q11 0 19 -8l144 -132l253 260q8 9 20 9q11 0 19 -8t8.5 -19.5t-7.5 -19.5z" />
    <glyph glyph-name="zuoyoujiantou1" unicode="&#xe623;" 
d="M743 809l-36 36l-451 -451l451 -450l36 36l-415 414z" />
    <glyph glyph-name="zuoyoujiantou2" unicode="&#xe624;" 
d="M281 -41l36 -36l451 451l-451 450l-36 -36l415 -414z" />
    <glyph glyph-name="bill1" unicode="&#xe688;" 
d="M330 833h410q62 0 106.5 -44.5t44.5 -106.5v-594q0 -62 -44.5 -106t-106.5 -44h-410q-62 0 -106 44t-44 106v594q0 62 44 106q45 45 106 45zM780 786v-214h-17l-46 26l-48 -26h-17v221h-322q-45 0 -78 -32.5t-33 -78.5v-594q0 -45 33 -78t78 -33h410q46 0 78.5 33
t32.5 78v594q0 46 -32 78q-17 17 -39 26zM278 411h515v-21h-515v21zM278 315h515v-21h-515v21zM278 252h515v-54h-515v54z" />
    <glyph glyph-name="gantanhao11-copy" unicode="&#xe603;" 
d="M512 -128q-139 0 -257 68.5t-186.5 186.5t-68.5 257t68.5 257t186.5 186.5t257 68.5t257 -68.5t186.5 -186.5t68.5 -257t-68.5 -257t-186.5 -186.5t-257 -68.5zM512 828q-90 0 -172.5 -35.5t-141.5 -94.5t-94.5 -141.5t-35.5 -172.5t35.5 -172.5t94.5 -141.5t141.5 -94.5
t172.5 -35.5t172.5 35.5t141.5 94.5t94.5 141.5t35.5 172.5t-35.5 172.5t-94.5 141.5t-141.5 94.5t-172.5 35.5zM512 77q-28 0 -48 20t-20 48t20 48t48 20t48 -20t20 -48t-20 -48t-48 -20zM512 282q-14 0 -24 20t-10 48l-34 307q0 28 20 48t48 20t48 -20t20 -48l-34 -307
q0 -28 -10 -48t-24 -20z" />
    <glyph glyph-name="lianxikefu1" unicode="&#xe606;" horiz-adv-x="1047" 
d="M505 756q-118 0 -201.5 -82t-83.5 -197.5t83.5 -197.5t201.5 -82t201.5 82t83.5 197.5t-83.5 197.5t-201.5 82zM176 369v258h-11q45 96 136.5 155.5t203.5 59.5t203.5 -59.5t136.5 -155.5h-11v0v-258q55 0 93.5 38t38.5 91q0 36 -18.5 66t-49.5 47q-43 121 -150.5 197.5
t-242.5 76.5t-242.5 -76.5t-150.5 -197.5q-31 -17 -49.5 -47t-18.5 -66q0 -53 38.5 -91t93.5 -38zM789 221q-49 -45 -132 -77t-151 -32h-1h-1q-67 0 -150 32t-133 77q-103 -52 -162 -141.5t-59 -207.5h1013q0 119 -59.5 208t-164.5 141z" />
    <glyph glyph-name="gerenzhongxin" unicode="&#xe64b;" 
d="M872 831h-723q-36 0 -61 -25t-25 -61v-723q0 -36 25 -61t61 -25h723q36 0 61 25t25 61v723q0 36 -25 61t-61 25zM906 39q0 -21 -15 -36.5t-36 -15.5h-689q-22 0 -37 15.5t-15 36.5v689q0 21 15 36.5t37 15.5h689q21 0 36 -15.5t15 -36.5v-689v0zM620 310q48 28 77 77.5
t29 107.5q0 89 -63.5 152t-152.5 63t-152 -63t-63 -152q0 -58 28.5 -107.5t77.5 -77.5q-75 -33 -120.5 -101.5t-45.5 -151.5h51q0 89 61 153.5t149 69.5h14h14q88 -5 149 -69.5t61 -153.5h52q0 83 -46 151.5t-120 101.5zM524 332h-14h-13q-64 5 -107 52t-43 111
q0 68 48 115.5t115.5 47.5t115.5 -47.5t48 -115.5q0 -64 -43.5 -111t-106.5 -52z" />
    <glyph glyph-name="yunyingguanli" unicode="&#xe6bd;" 
d="M741 85zM577 84.5q0 -68.5 48 -116.5t116.5 -48t116.5 48t48 116.5t-48 116.5t-116.5 48t-116.5 -48t-48 -116.5zM741 -102q-77 0 -131.5 54.5t-54.5 132t55 132t131 54.5q77 0 132 -54.5t55 -131.5t-55 -132t-132 -55zM741 227q-59 0 -100.5 -41.5t-41.5 -100.5
t41.5 -101t100.5 -42t101 42t42 100.5t-42 100.5t-101 42zM520 845q83 0 130 -51q57 -61 48 -172q-6 -69 -45 -139q-5 -10 -22 -31q-9 -12 -13.5 -18.5t-12.5 -19t-12 -23t-8 -23.5t-3.5 -27t4.5 -29q0 -2 4 -11q-56 -36 -87.5 -93.5t-31.5 -123.5q0 -68 33 -127
q-167 3 -222 14q-109 20 -133 60q-15 24 -4 62q11 42 120 102l11 7q48 26 75 36l9 4q16 6 26.5 11t27.5 16t26.5 28t11.5 38t-4 40t-12.5 29t-19.5 25q-1 3 -4.5 7t-4.5 6q-79 110 -71 230q5 73 45.5 118t108.5 53q13 2 30 2zM520 889q-19 0 -35 -2q-85 -9 -136 -67
t-57 -144q-9 -136 79 -259q4 -4 12 -14.5t11.5 -15t8 -13t5.5 -16.5t0 -17q0 -8 -3 -15t-8.5 -12.5t-9.5 -9t-13 -8t-12.5 -6t-14 -5.5t-12.5 -5q-26 -10 -90 -45q-59 -32 -95.5 -62t-46.5 -67q-5 -24 -6.5 -42.5t6 -35t15.5 -28.5t23 -22.5t29.5 -18t33.5 -13.5t35 -10
t35 -7q82 -16 292 -16q10 5 10 16q0 7 -4 12q-57 62 -57 144q0 62 34 114t89 79l2 2q8 3 8 13q0 7 -5 11q-13 11 -16 21q-6 24 4 47t32 51t28 40q43 75 50 156q10 123 -52 196.5t-169 73.5zM738 102l-68 -43q-6 -4 -9 2l-2 3q-3 5 2 9l69 43q5 4 9 -2l1 -2q3 -6 -2 -10z
M816 68l-72 38q-6 3 -2 8l1 3q4 6 9 2l72 -37q6 -4 2 -9l-1 -3q-3 -5 -9 -2zM658 62zM633 61.5q0 -10.5 7.5 -18t18 -7.5t18 7.5t7.5 18t-7.5 18t-18 7.5t-18 -7.5t-7.5 -18zM746 117zM720 116.5q0 -10.5 7.5 -18t18 -7.5t18 7.5t7.5 18t-7.5 18t-18 7.5t-18 -7.5t-7.5 -18z
M830 69zM805 69.5q0 -10.5 7.5 -18t18 -7.5t18 7.5t7.5 18t-7.5 18t-18 7.5t-18 -7.5t-7.5 -18zM850 -36l56 -56q7 -6 7 -15t-6.5 -15t-15 -6t-14.5 6l-56 56q-7 6 -7 15t6.5 15t15 6t14.5 -6z" />
    <glyph glyph-name="daoru-copy" unicode="&#xe9c8;" horiz-adv-x="1027" 
d="M35 482v-2v-188v-3q0 -13 9.5 -22.5t22.5 -9.5t22.5 9.5t9.5 22.5v3v188v2q0 13 -9.5 22.5t-22.5 9.5t-22.5 -9.5t-9.5 -22.5zM292 835q0 -27 18.5 -45.5t45.5 -18.5h385q27 0 46 -19t19 -45v-642q0 -27 -19 -46t-46 -19h-385q-27 0 -45.5 -18.5t-18.5 -45t18.5 -45.5
t45.5 -19h385q80 0 136.5 56.5t56.5 136.5v642q0 79 -56.5 135.5t-136.5 56.5h-385q-27 0 -45.5 -18.5t-18.5 -45.5zM590 363q10 9 10 22.5t-10 22.5l-211 212q-10 9 -16.5 6.5t-6.5 -16.5v-64q0 -13 -9.5 -22.5t-22.5 -9.5h-129q-13 0 -22.5 -9.5t-9.5 -22.5v-193
q0 -13 9.5 -22.5t22.5 -9.5h129q13 0 22.5 -9.5t9.5 -22.5v-64q0 -13 6.5 -16t16.5 6z" />
    <glyph glyph-name="zan-copy" unicode="&#xe9c9;" 
d="M153 295h229q-65 -252 18 -334q22 -21 44 -24q22 0 34.5 8.5t15 18.5t3.5 21t2 13q0 46 17.5 94t42.5 82.5t50 63t43 42.5l17 15v472q0 31 -29.5 47t-55.5 16h-344q-15 0 -29.5 -22t-22.5 -44l-7 -22q-38 -134 -59.5 -234t-23.5 -123t-2 -33v0q0 -57 57 -57zM763 295h138
q12 0 19.5 7t7.5 15l1 7l-28 476q0 13 -7.5 21t-14.5 8l-7 1h-119q-11 0 -17 -5t-7 -10l-1 -5v-479q0 -16 9 -25t18 -10z" />
  </font>
</defs>
</svg>
